<?xml version="1.0" encoding="utf-8"?>
<!-- Generator: Adobe Illustrator 25.0.1, SVG Export Plug-In . SVG Version: 6.00 Build 0)  -->
<svg version="1.1" id="Layer_1" xmlns="http://www.w3.org/2000/svg" xmlns:xlink="http://www.w3.org/1999/xlink" x="0px" y="0px"
	 viewBox="0 0 167.6 167.7" style="enable-background:new 0 0 167.6 167.7;" xml:space="preserve">
<style type="text/css">
	.st0{fill:#333E52;}
	.st1{fill:#FEFEFE;}
	.st2{fill:#54BABE;}
	.st3{fill:#EFDDAF;}
	.st4{fill:#E84C47;}
</style>
<path class="st0" d="M83.6,167.7c-24.8,0-49.6,0-74.5,0c-6.3,0-9.2-2.8-9.2-9.1C0,108.7,0,58.9,0,9.1C0,3,3,0,9,0
	c49.8,0,99.6,0,149.5,0c6,0,9.1,3.1,9.1,9.1c0,49.8,0,99.6,0,149.5c0,6.2-3,9.1-9.2,9.1C133.4,167.7,108.5,167.7,83.6,167.7z"/>
<g id="uGWRKR_5_">
	<g>
		<path class="st1" d="M85,66.7c15,0,30,0,45,0c4,0,4.6,0.7,3.8,4.6c-2.1,10.9-6.3,20.7-14.6,28.4c-3.7,3.5-8,6.2-12.9,7.8
			c-1.3,0.4-2,0.9-2,2.5c0,5.3,0,5.3-5.4,5.3c-10,0-20,0-30,0c-3.4,0-4.2-0.7-4-4c0.2-2.5-0.8-3.4-3-4.3
			c-11.4-4.4-18.4-13.2-22.9-24.2c-1.6-3.9-2.6-7.8-3.4-11.9c-0.6-3.2,0.2-4.1,3.5-4.1C54.6,66.7,69.8,66.7,85,66.7z M84.9,71.6
			c-12.8,0-25.6,0-38.4,0c-5.9,0-6,0-4.2,5.6c4.3,12.9,11.5,23,25.6,26.5c1.3,0.3,1.9,1.3,2,2.5c0.1,0.8,0.1,1.7,0,2.5
			c-0.1,1.2,0.2,1.7,1.6,1.7c8.8-0.1,17.6-0.1,26.3,0c1.4,0,1.8-0.5,1.6-1.7c-0.1-0.6,0-1.2,0-1.8c-0.1-1.9,0.7-2.9,2.6-3.4
			c3.6-0.8,6.8-2.3,9.8-4.4c8.8-6.1,13.5-14.9,16.1-25c0.7-2.6,0.7-2.6-1.9-2.6C112.5,71.6,98.7,71.6,84.9,71.6z"/>
		<path class="st2" d="M106.2,49.7c-1.4,0.2-2.8,0.4-4,1.1c-1.9,1-3.5,2.4-5.8,0.6c-1.1-0.8-2.7,0.1-3.8,0.9c-1,0.7-1.5,0.8-1.8-0.7
			c-0.6-3-2.6-4.1-6.5-4.1c-3.6,0-5.1,1.1-5.9,4.2c-0.2,0.6-0.4,1.3-0.7,2.2c-0.9-1-1.7-1.8-2.5-2.6c-2.8-2.8-6-3.2-9.1-1
			c-0.9,0.6-1.3,0.6-2.1,0c-2.3-1.8-4.4-1.7-6.5-0.2c-2.6,1.9-3.3,4-2.2,6.8c0.6,1.5,0.4,2-1.3,2c-2.9,0-5.2,1.2-6.3,4.1
			c-0.7,1.8-2.2,1-3.3,0.7c-1.4-0.3-0.5-1.4-0.3-2.1c0.9-2.6,2.5-4.6,5.2-5.6c1.1-0.4,1.6-1,1.8-2.3c0.7-6,8-10.7,13.2-8
			c0.8,0.4,1.6,0.2,2.4-0.1c2.9-1.2,5.8-0.9,8.4,0.7c1,0.6,1.5,0.4,2.4-0.3c4.6-3.7,11.1-3.3,15.4,0.7c0.6,0.6,1.1,1.1,2,0.7
			c0.1,0,0.2-0.1,0.2,0c4.8,1.6,8.9-2.3,13.6-1.5C107.6,47.2,106.9,48.5,106.2,49.7z"/>
		<path class="st3" d="M106.2,49.7c0.7-1.3,1.5-2.5,2.2-3.8c4.5-7.2,9-14.4,13.5-21.6c0.7-1.1,1.5-2.8,3-2.3c2,0.6,4,1.8,5.1,3.7
			c0.6,1.1-0.3,2-0.9,2.9c-4.3,6.4-9,12.6-13.6,18.8c-0.3,0.4-0.5,0.8-0.7,1.2c-0.8,1-1.5,2-2.3,3c-1,1.1-2.1,2.2-3,3.4
			c-1,1.5-2,1.6-3.5,0.5c-1.5-1-2.2-1.9-1-3.5C105.6,51.3,105.8,50.5,106.2,49.7z"/>
		<path class="st4" d="M99.7,35.3c-0.3,2.5-1.4,4.5-3.7,5.8c-0.6,0.3-1.2,0.5-1.7-0.1c-0.5-0.7-0.2-1.2,0.4-1.8
			c3.4-3.4,3.4-5.4,0.1-8.9c-2-2.2-3.9-4.4-4.1-7.5c-0.3-3.3,1.1-6,3.4-8.2c0.4-0.4,1-0.9,1.6-0.3c0.6,0.6,0.6,1.2,0,1.8
			c-0.3,0.3-0.5,0.6-0.7,0.9c-2.9,3.5-2.8,7,0.3,10.4c1.2,1.3,2.4,2.6,3.3,4.1C99.2,32.7,99.6,33.9,99.7,35.3z"/>
		<path class="st4" d="M84.7,41.4c-1.6-0.1-2-0.7-1.5-1.6c0.2-0.4,0.8-0.7,1.2-1.1c2.2-2,2.5-3.8,1-6.4c-0.7-1.2-1.7-2.2-2.6-3.2
			c-4.1-4.6-4.2-10.1-0.2-14c0.6-0.6,1.2-1.7,2.2-0.7c0.9,0.9,0.1,1.5-0.5,2.1c-3.4,4.2-3.3,7.3,0.3,11.2c1.3,1.5,2.7,3,3.4,4.9
			c1.1,3.1,0.1,6.4-2.7,8.1C85,41,84.7,41.4,84.7,41.4z"/>
		<path class="st4" d="M72.8,14c0.9,0.2,1.3,0.7,1.1,1.5c-0.1,0.3-0.4,0.6-0.6,0.9c-3.6,4.6-3.5,7.3,0.4,11.6
			c1.4,1.6,2.9,3.2,3.4,5.4c0.8,2.9-0.5,6-3.1,7.5c-0.7,0.4-1.5,0.8-2-0.1c-0.5-0.7,0.1-1.2,0.6-1.7c3.1-2.9,3.3-5,0.5-8.3
			c-1.4-1.6-3-3.1-3.9-5.1c-1.7-3.6-0.5-8.6,2.6-11.1C72.2,14.4,72.5,14.2,72.8,14z"/>
		<path class="st2" d="M112.6,51.5c0.8-1,1.5-2,2.3-3c2.6,2.5,5.2,5,8.2,7.1c2,1.3,3.2,3.6,3.4,6c0.1,0.9,0.5,2.5-0.6,2.6
			c-1.1,0.2-2.7-0.6-3.1-1.9c-1.1-3.4-3-5.7-6.7-5.9c-0.6,0-0.7-0.4-0.8-0.9C115,53.9,113.9,52.6,112.6,51.5z"/>
		<path class="st2" d="M59.7,57.4c0.2-1.6,0.9-2.7,2.7-2.7c1.7,0,3.1,1.2,2.9,2.8c-0.1,1.7-1.1,2.7-2.8,2.7
			C60.8,60.2,59.9,59.1,59.7,57.4z"/>
		<path class="st2" d="M82.4,51.9c1.6,0.1,2.6,1.1,2.6,2.8c0,1.7-1,2.7-2.7,2.8c-1.6,0.1-3.1-1.4-2.9-2.9
			C79.6,52.9,80.5,51.9,82.4,51.9z"/>
		<path class="st2" d="M99.9,60.1c0.2-1.8,1.2-2.7,3-2.7c1.7,0,2.5,1.1,2.7,2.6c0.2,1.5-1.4,3.1-2.9,3C101,62.8,100,61.9,99.9,60.1z
			"/>
		<path class="st2" d="M70.8,60.3c0-1.7,1.2-2.9,2.9-2.9c1.9,0,2.7,1.2,2.7,2.8c0,1.7-1.1,2.7-2.8,2.8C72,63,71,61.9,70.8,60.3z"/>
		<path class="st2" d="M91.7,59.1c0.1-1.9,1.3-2.6,3-2.6c1.7,0,2.4,1.2,2.6,2.7c0.2,1.4-1.6,3.1-3,2.9
			C92.7,61.8,91.6,60.9,91.7,59.1z"/>
		<path class="st0" d="M84.9,71.6c13.8,0,27.6,0,41.4,0c2.6,0,2.6,0,1.9,2.6c-2.6,10.1-7.3,18.9-16.1,25c-3,2.1-6.3,3.6-9.8,4.4
			c-2,0.4-2.8,1.4-2.6,3.4c0,0.6,0,1.2,0,1.8c0.1,1.3-0.3,1.8-1.6,1.7c-8.8-0.1-17.6-0.1-26.3,0c-1.4,0-1.7-0.5-1.6-1.7
			c0.1-0.8,0.1-1.7,0-2.5c-0.1-1.3-0.7-2.2-2-2.5c-14.1-3.4-21.3-13.6-25.6-26.5c-1.9-5.6-1.8-5.6,4.2-5.6
			C59.4,71.6,72.1,71.6,84.9,71.6z"/>
	</g>
</g>
<g id="kr4hFX_6_">
	<g>
		<path class="st3" d="M100.5,135.4c0.3-1.3,0.6-2.5,0.9-3.8c0.9-3.9,1.7-7.9,2.5-11.8c0.9-4,3.1-7.2,6.2-9.8
			c3.3-2.8,7.1-4.7,11.1-6.3c2-0.8,4.1-1.5,6.1-2.3c0.5-0.2,0.7-0.1,0.9,0.4c0.4,0.9,1,1.8,1.4,2.7c0.3,0.6,0.2,1.1-0.3,1.6
			c-2.7,3-5.5,5.7-8.8,8.1c-0.3,0.2-0.6,0.7-0.6,1c0,0.3,0.3,0.7,0.6,0.8c0.3,0.1,0.8,0,1.1-0.2c2.1-1.7,4.2-3.5,6.2-5.3
			c1-0.9,1.9-2,2.9-3c1.1-1.1,1.3-2.3,0.8-3.6c-0.5-1.2-1.1-2.3-1.8-3.5c-0.3-0.5-0.4-0.8-0.2-1.3c1.5-4.2,3-8.4,4.6-12.6
			c1.1-2.8,2.3-5.6,3.5-8.3c0.6-1.5,1.9-2.3,3.4-2.6c0.7-0.2,1.4-0.2,2.1-0.3c0.4-0.1,0.6,0.1,0.6,0.5c-0.3,3.3-0.5,6.7-0.8,10
			c-0.4,4.6-0.8,9.1-1.3,13.7c-0.5,4.3-1,8.6-2.1,12.8c-0.2,0.8-0.4,1.6-0.8,2.3c-0.3,0.6-0.7,1.2-1.2,1.6c-2.6,2.3-5.6,4.2-8.5,6
			c-3.7,2.2-7.3,4.4-11,6.6c-0.4,0.2-0.7,0.6-0.9,1c-1.4,2.6-2.7,5.2-4.1,7.9c-0.2,0.5-0.5,0.6-1,0.4c-3.7-0.9-7.3-1.8-11-2.6
			C101.1,135.6,100.9,135.6,100.5,135.4z"/>
	</g>
</g>
<g id="kr4hFX_5_">
	<g>
		<path class="st3" d="M70.2,135.4c-0.3-1.3-0.6-2.5-0.9-3.8c-0.9-3.9-1.7-7.9-2.5-11.8c-0.9-4-3.1-7.2-6.2-9.8
			c-3.3-2.8-7.1-4.7-11.1-6.3c-2-0.8-4.1-1.5-6.1-2.3c-0.5-0.2-0.7-0.1-0.9,0.4c-0.4,0.9-1,1.8-1.4,2.7c-0.3,0.6-0.2,1.1,0.3,1.6
			c2.7,3,5.5,5.7,8.8,8.1c0.3,0.2,0.6,0.7,0.6,1c0,0.3-0.3,0.7-0.6,0.8c-0.3,0.1-0.8,0-1.1-0.2c-2.1-1.7-4.2-3.5-6.2-5.3
			c-1-0.9-1.9-2-2.9-3c-1.1-1.1-1.3-2.3-0.8-3.6c0.5-1.2,1.1-2.3,1.8-3.5c0.3-0.5,0.4-0.8,0.2-1.3c-1.5-4.2-3-8.4-4.6-12.6
			c-1.1-2.8-2.3-5.6-3.5-8.3c-0.6-1.5-1.9-2.3-3.4-2.6c-0.7-0.2-1.4-0.2-2.1-0.3c-0.4-0.1-0.6,0.1-0.6,0.5c0.3,3.3,0.5,6.7,0.8,10
			C28,90.4,28.4,95,29,99.5c0.5,4.3,1,8.6,2.1,12.8c0.2,0.8,0.4,1.6,0.8,2.3c0.3,0.6,0.7,1.2,1.2,1.6c2.6,2.3,5.6,4.2,8.5,6
			c3.7,2.2,7.3,4.4,11,6.6c0.4,0.2,0.7,0.6,0.9,1c1.4,2.6,2.7,5.2,4.1,7.9c0.2,0.5,0.5,0.6,1,0.4c3.7-0.9,7.3-1.8,11-2.6
			C69.7,135.6,69.9,135.6,70.2,135.4z"/>
	</g>
</g>
</svg>
